HIERARCHY
ROOT Hips
{
	OFFSET -14.64140 90.27770 -84.91600
	CHANNELS 6 Xposition Yposition Zposition Zrotation Xrotation Yrotation
	JOINT Spine
	{
		OFFSET 0.00000 13.20850 -1.60436
		CHANNELS 3 Zrotation Xrotation Yrotation
		JOINT Spine1
		{
			OFFSET 0.00000 8.61716 0.00000
			CHANNELS 3 Zrotation Xrotation Yrotation
			JOINT Spine2
			{
				OFFSET 0.00000 8.61717 0.00000
				CHANNELS 3 Zrotation Xrotation Yrotation
				JOINT Spine3
				{
					OFFSET 0.00000 8.61717 0.00000
					CHANNELS 3 Zrotation Xrotation Yrotation
					JOINT Neck
					{
						OFFSET 0.00000 11.07920 1.10792
						CHANNELS 3 Zrotation Xrotation Yrotation
						JOINT Neck1
						{
							OFFSET 0.00000 7.08032 0.00000
							CHANNELS 3 Zrotation Xrotation Yrotation
							JOINT Head
							{
								OFFSET 0.00000 7.08031 0.00000
								CHANNELS 3 Zrotation Xrotation Yrotation
								End site
								{
									OFFSET 0.00000 0.00000 0.00000
								}
							}
						}
					}
					JOINT RightShoulder
					{
						OFFSET -0.01000 7.91373 5.19711
						CHANNELS 3 Zrotation Xrotation Yrotation
						JOINT RightArm
						{
							OFFSET -18.41580 0.00000 0.00000
							CHANNELS 3 Zrotation Xrotation Yrotation
							JOINT RightForeArm
							{
								OFFSET -29.11090 0.00000 0.00000
								CHANNELS 3 Zrotation Xrotation Yrotation
								JOINT RightHand
								{
									OFFSET -24.65040 0.00000 0.00000
									CHANNELS 3 Zrotation Xrotation Yrotation
									JOINT RightHandThumb1
									{
										OFFSET -5.35114 -0.85590 3.97906
										CHANNELS 3 Zrotation Xrotation Yrotation
										JOINT RightHandThumb2
										{
											OFFSET -4.52789 0.00000 0.00000
											CHANNELS 3 Zrotation Xrotation Yrotation
											JOINT RightHandThumb3
											{
												OFFSET -2.46976 0.00000 0.00000
												CHANNELS 3 Zrotation Xrotation Yrotation
												End site
												{
													OFFSET 0.00000 0.00000 0.00000
												}
											}
										}
									}
									JOINT RightHandIndex1
									{
										OFFSET -14.26970 0.00000 2.88139
										CHANNELS 3 Zrotation Xrotation Yrotation
										JOINT RightHandIndex2
										{
											OFFSET -5.48836 0.00000 0.00000
											CHANNELS 3 Zrotation Xrotation Yrotation
											JOINT RightHandIndex3
											{
												OFFSET -3.01859 0.00000 0.00000
												CHANNELS 3 Zrotation Xrotation Yrotation
												End site
												{
													OFFSET 0.00000 0.00000 0.00000
												}
											}
										}
									}
									JOINT RightHandMiddle1
									{
										OFFSET -14.26970 0.00000 -0.09147
										CHANNELS 3 Zrotation Xrotation Yrotation
										JOINT RightHandMiddle2
										{
											OFFSET -6.17441 0.00000 0.00000
											CHANNELS 3 Zrotation Xrotation Yrotation
											JOINT RightHandMiddle3
											{
												OFFSET -3.56743 0.00000 0.00000
												CHANNELS 3 Zrotation Xrotation Yrotation
												End site
												{
													OFFSET 0.00000 0.00000 0.00000
												}
											}
										}
									}
									JOINT RightHandRing1
									{
										OFFSET -12.69180 0.00000 -3.06433
										CHANNELS 3 Zrotation Xrotation Yrotation
										JOINT RightHandRing2
										{
											OFFSET -5.62556 0.00000 0.00000
											CHANNELS 3 Zrotation Xrotation Yrotation
											JOINT RightHandRing3
											{
												OFFSET -3.56744 0.00000 0.00000
												CHANNELS 3 Zrotation Xrotation Yrotation
												End site
												{
													OFFSET 0.00000 0.00000 0.00000
												}
											}
										}
									}
									JOINT RightHandPinky1
									{
										OFFSET -11.11390 0.00000 -6.03719
										CHANNELS 3 Zrotation Xrotation Yrotation
										JOINT RightHandPinky2
										{
											OFFSET -4.52789 0.00000 0.00000
											CHANNELS 3 Zrotation Xrotation Yrotation
											JOINT RightHandPinky3
											{
												OFFSET -2.46976 0.00000 0.00000
												CHANNELS 3 Zrotation Xrotation Yrotation
												End site
												{
													OFFSET 0.00000 0.00000 0.00000
												}
											}
										}
									}
								}
							}
						}
					}
					JOINT LeftShoulder
					{
						OFFSET 0.01000 7.91373 5.19711
						CHANNELS 3 Zrotation Xrotation Yrotation
						JOINT LeftArm
						{
							OFFSET 18.41580 0.00000 0.00000
							CHANNELS 3 Zrotation Xrotation Yrotation
							JOINT LeftForeArm
							{
								OFFSET 29.11090 0.00000 0.00000
								CHANNELS 3 Zrotation Xrotation Yrotation
								JOINT LeftHand
								{
									OFFSET 24.65040 0.00000 0.00000
									CHANNELS 3 Zrotation Xrotation Yrotation
									JOINT LeftHandThumb1
									{
										OFFSET 5.35114 -0.85590 3.97906
										CHANNELS 3 Zrotation Xrotation Yrotation
										JOINT LeftHandThumb2
										{
											OFFSET 4.52789 0.00000 0.00000
											CHANNELS 3 Zrotation Xrotation Yrotation
											JOINT LeftHandThumb3
											{
												OFFSET 2.46977 0.00000 0.00000
												CHANNELS 3 Zrotation Xrotation Yrotation
												End site
												{
													OFFSET 0.00000 0.00000 0.00000
												}
											}
										}
									}
									JOINT LeftHandIndex1
									{
										OFFSET 14.26970 0.00000 2.88139
										CHANNELS 3 Zrotation Xrotation Yrotation
										JOINT LeftHandIndex2
										{
											OFFSET 5.48836 0.00000 0.00000
											CHANNELS 3 Zrotation Xrotation Yrotation
											JOINT LeftHandIndex3
											{
												OFFSET 3.01859 0.00000 0.00000
												CHANNELS 3 Zrotation Xrotation Yrotation
												End site
												{
													OFFSET 0.00000 0.00000 0.00000
												}
											}
										}
									}
									JOINT LeftHandMiddle1
									{
										OFFSET 14.26970 0.00000 -0.09147
										CHANNELS 3 Zrotation Xrotation Yrotation
										JOINT LeftHandMiddle2
										{
											OFFSET 6.17440 0.00000 0.00000
											CHANNELS 3 Zrotation Xrotation Yrotation
											JOINT LeftHandMiddle3
											{
												OFFSET 3.56744 0.00000 0.00000
												CHANNELS 3 Zrotation Xrotation Yrotation
												End site
												{
													OFFSET 0.00000 0.00000 0.00000
												}
											}
										}
									}
									JOINT LeftHandRing1
									{
										OFFSET 12.69180 0.00000 -3.06433
										CHANNELS 3 Zrotation Xrotation Yrotation
										JOINT LeftHandRing2
										{
											OFFSET 5.62556 0.00000 0.00000
											CHANNELS 3 Zrotation Xrotation Yrotation
											JOINT LeftHandRing3
											{
												OFFSET 3.56744 0.00000 0.00000
												CHANNELS 3 Zrotation Xrotation Yrotation
												End site
												{
													OFFSET 0.00000 0.00000 0.00000
												}
											}
										}
									}
									JOINT LeftHandPinky1
									{
										OFFSET 11.11390 0.00000 -6.03719
										CHANNELS 3 Zrotation Xrotation Yrotation
										JOINT LeftHandPinky2
										{
											OFFSET 4.52789 0.00000 0.00000
											CHANNELS 3 Zrotation Xrotation Yrotation
											JOINT LeftHandPinky3
											{
												OFFSET 2.46976 0.00000 0.00000
												CHANNELS 3 Zrotation Xrotation Yrotation
												End site
												{
													OFFSET 0.00000 0.00000 0.00000
												}
											}
										}
									}
								}
							}
						}
					}
					JOINT pCube4
					{
						OFFSET 0.00000 10.91090 1.10792
						CHANNELS 3 Zrotation Xrotation Yrotation
						End site
						{
							OFFSET 0.00000 0.00000 0.00000
						}
					}
				}
			}
		}
	}
	JOINT RightUpLeg
	{
		OFFSET -9.98441 0.00000 0.00000
		CHANNELS 3 Zrotation Xrotation Yrotation
		JOINT RightLeg
		{
			OFFSET 0.00000 -42.11790 0.00000
			CHANNELS 3 Zrotation Xrotation Yrotation
			JOINT RightFoot
			{
				OFFSET 0.00000 -45.00020 -0.00001
				CHANNELS 3 Zrotation Xrotation Yrotation
				JOINT RightForeFoot
				{
					OFFSET 0.00000 -3.74820 0.00000
					CHANNELS 3 Zrotation Xrotation Yrotation
					JOINT RightToeBase
					{
						OFFSET 0.00000 0.06325 14.43120
						CHANNELS 3 Zrotation Xrotation Yrotation
						End site
						{
							OFFSET 0.00000 0.00000 0.00000
						}
					}
				}
			}
		}
	}
	JOINT LeftUpLeg
	{
		OFFSET 9.98441 0.00000 0.00000
		CHANNELS 3 Zrotation Xrotation Yrotation
		JOINT LeftLeg
		{
			OFFSET 0.00000 -42.11800 0.00000
			CHANNELS 3 Zrotation Xrotation Yrotation
			JOINT LeftFoot
			{
				OFFSET 0.00000 -45.00070 0.00000
				CHANNELS 3 Zrotation Xrotation Yrotation
				JOINT LeftForeFoot
				{
					OFFSET 0.00000 -3.74824 0.00000
					CHANNELS 3 Zrotation Xrotation Yrotation
					JOINT LeftToeBase
					{
						OFFSET 0.00000 0.06325 14.43110
						CHANNELS 3 Zrotation Xrotation Yrotation
						End site
						{
							OFFSET 0.00000 0.00000 0.00000
						}
					}
				}
			}
		}
	}
}
MOTION
Frames: 4
Frame Time: 0.050000
0.044798502038873936 -0.04131727735240719 0.042121920608730865 0.03639134952780969 0.020641106757572317 -0.006929566616207923 -1.96218523849915 1.7721986500826716 -0.9160447482984917 -0.9950437680846608 3.945904302795438 0.3485518072460385 -1.1387949963347241 -1.4743959531079116 -1.243755788284247 0.7322504215166059 0.6037393767407963 -0.8331185321843236 0.13941246012769568 12.294961580774281 -1.5868401345183294 -0.08190765683018328 -1.1347942507423174 -5.25932729168866 0.49014200793693946 -16.984408503598594 -0.38657697671918156 -4.077628384697396 1.437261952907999 -14.979541785720349 71.06363983088173 27.311001221313578 3.70285999736576 -0.9310965409449563 5.337311327056724 39.43462028715369 22.782535884523043 -0.17703480691466847 -5.537654736116473 4.487971159946102 -0.1434419434913946 -1.6026286103068363 -0.02119120212118842 0.04740021701063317 -56.21214240041594 -0.03535427534702145 0.015301006528409447 -56.250469001000745 -38.73574345208347 -0.022250103439390052 0.015963889585920873 -0.04553342425105977 0.01364646185499405 0.007873556256395504 0.025342461701469792 0.013030049415080514 -0.0026354692747392093 -36.65848788650676 0.037435070283277444 -0.04909950500178054 0.033815096488035934 -0.023430245646707107 -0.04411224410259486 -0.008185669371797315 -0.0069199396826827965 -0.018369308564252774 -19.776074686063776 0.04831717299184475 0.009358743262364726 -0.03355315548946848 0.011636958291987963 0.0008185006403414639 -0.011153062772499927 -0.02078576036118964 -0.036685944134405055 24.043370477260304 0.048235391408183136 -0.024800714361618115 28.896448313935505 0.004881996949810115 0.01139624115843677 28.888917508666204 0.0005293931973348377 0.004891286055895352 4.852399808932145 1.186981867082234 13.001513247471433 -68.1330207347757 30.25095727360259 -9.090007471844526 -0.22615523032522508 -2.3771698632850313 -55.228885900529676 -18.963525260916807 -7.673268976209973 7.799437681976181 -0.42441180012065916 0.09592431375683157 -8.113224233779777 -0.011228576467532017 -0.021790962931466172 44.601458128411366 0.03212758751252136 -0.00011344398508681739 44.58417213970026 12.449663928049938 -0.013485629434385847 0.03110866029357284 0.0033494973128500305 -0.04791993122189251 0.04652249180312721 0.0061110349301417505 0.02038066832220424 0.03626279626582424 11.09121441607161 -0.045039555667623896 0.013400548430901474 -0.015148034550457316 0.006271885272045105 0.021286568271671646 -0.016858090094966107 0.030989530793087118 0.015864436496579325 4.7392904337490585 0.023283314524460346 0.018248207394700854 -0.04759703786926736 0.00857690628306392 0.034389545240071616 0.0050783142593668635 0.04122207557440269 -0.029088964246666203 -5.552164741348665 -0.014322799684364276 -0.008781504849018698 -6.7532168599339375 -0.01585330823689868 -0.027281429084161524 -6.7472823714634735 -0.04598176766035118 0.030109864719949146 0.04076376044744631 -0.01781270843904257 -0.011052046549362642 8.0273498876037 3.461517177034283 -19.250549044806675 -0.006693949268357906 10.431948337906125 -0.015588627144996942 -5.58395345777663 -15.624282057136726 3.184524780433673 0.04943990064566217 0.013324923226087233 -0.005038436532685193 0.008028929260822954 4.704386913506115 -0.017528418721849678 12.48492982089956 -8.261171078508399 6.865565617361384 -0.01950539699549895 46.41977268007858 -0.01693444208288226 -4.330556057490748 -14.738622686420811 -3.843146282931192 -0.002851793249390435 -0.04722898733741639 -0.044477181290054575 -0.02790909900926682 -10.734872629037683 -0.0029090516875243974 
-0.03294347412958611 0.042775433306747476 -0.00351755267391874 -0.0012854055403644924 0.000322241328530021 0.005608352629791005 -1.7940029552465593 1.7859580981123035 -0.8972557419995598 -1.0641758904523457 3.913482265172273 0.3622559002615095 -1.151379888712123 -1.46616148027791 -1.23776822563781 0.7438546358031336 0.643272622933379 -0.8791109324948435 0.18208380390608236 12.226496080584141 -1.4434339620753374 -0.09761354135510476 -1.043309245765979 -5.010745948200511 0.44889656646112236 -16.767321675036726 -0.44139903241717793 -3.9816770602183476 1.4021243272341364 -15.077083687929235 70.80479754540364 26.80207435085962 2.9699607977602245 -0.8209253164395269 4.867557773449176 39.47666766313338 22.56237590941854 -0.16906663578484413 -5.307533000338273 4.534516034133108 -0.08221997708131515 -1.6405412170590035 0.004064577493994133 0.03932902597058666 -56.18950976147213 -0.021169429632178487 0.011067910840629447 -56.22494829679355 -38.73622121758282 -0.008824662220554037 -0.01589402862754294 0.025765246043479326 0.014724620200279613 -0.00693374787798922 -0.027081914689739223 -0.003227366842199113 0.01843897290243555 -36.72074186863194 0.02598714141833542 0.040231524702562596 0.008135170604967438 -0.014174166670302116 0.01969901303496381 0.043725419853231605 -0.02140836349061763 0.03796219559222093 -19.754382970588857 0.030847462091068197 0.03517681705193744 -0.04972690112648624 -0.04386159466562337 0.012104711949080768 0.004913043128749962 0.0020394693118298236 -0.003352680039160686 24.064103785552543 -0.01601037373894877 -0.02697947607283787 28.90586646570772 0.042695218544962894 0.005705315233602976 28.852571386022007 -0.024612318145373853 0.01830172722758373 4.740151858747927 1.1705472047532017 12.998889892367435 -68.1274601236374 30.357086134971674 -8.46967495000887 2.4617910232971862 -4.731649861914875 -53.90271741039348 -18.329088620612996 -6.459682594997533 7.002711654467308 -0.4982546429811019 0.06530376207763454 -8.159731958284924 -0.000742716055681334 0.030244448212745488 44.53858448994734 0.0027706454736025634 0.03715299466699923 44.57681532038341 12.438589480756324 0.018484213432843354 -0.032459125298660775 0.014645876773922739 0.008657477071589604 0.0008176977688193943 -0.008724898733300027 0.019301058388145612 0.04009314501586279 11.091523162269041 -0.01560517852659855 0.04760837905376125 0.03235967764783512 -0.0073257851057557674 -0.03960263819474045 -0.03922028533956998 0.03351640873994802 -0.009212303657317653 4.745286574097865 0.02195273105768473 -0.017306380520415013 0.017342245632714123 0.02990816030909839 0.04586548539242258 0.007585744792759176 0.02040241991461927 -0.0433693545110712 -5.629676442300698 -0.03958426583102363 0.01935272757069206 -6.716165588790335 -0.0052956144373335285 -0.018363915804313204 -6.720844819434681 0.037452678261647616 -0.0412580538164022 0.024846063490270257 0.009894880695007786 -0.0174933963589199 8.05103767572472 3.497875845463448 -19.205944571386368 -0.004946146925929752 10.369852319606773 -0.024104184976430913 -5.633131650844605 -15.660559497717498 3.162946449709099 -0.007596510983806643 -0.025328054152459513 -0.002607907189235414 0.012710364898928675 4.726066870940229 -0.026222472137011555 12.454567500341064 -8.266056046367217 6.8428660908226115 0.04613614465502288 46.40416074733642 -0.005024827208686192 -4.3392381743939215 -14.79534084272473 -3.867188034953277 -0.02451693756114226 -0.024418786452818992 -0.01029067932987673 -0.005157832375419227 -10.73149577555158 0.012094790872932294 
-0.04636181501603734 0.04406001698350669 0.003025537220332617 -0.03576504162923298 0.048017187054217626 0.0386297412064599 -1.754713210506249 1.6595744004014537 -0.9626379097862366 -0.9789888063609811 3.9709665287168225 0.4117151097923098 -1.1776198531829638 -1.394428126433798 -1.1960367551345574 0.7792022687842183 0.6047214550631971 -0.8026282167657104 0.2274644542712039 12.05465443399554 -1.486475071571455 -0.04329808088905698 -0.9908277521887151 -5.140997091055622 0.5209041962854112 -16.579399021034966 -0.42743020740413024 -3.8704010078270876 1.3981808202848744 -15.14681549303959 70.82144677280183 26.417460302197636 2.324509605203327 -0.7946831344210146 4.439215896121487 39.34684608455861 22.27596570054247 -0.09828107477449474 -5.174564600679582 4.497673241074135 -0.13890084379993958 -1.551191355800454 0.014090221834323598 -0.031806478035102115 -56.23078059281939 0.04129017587698197 -0.022853883913871123 -56.21446069602043 -38.74294900765698 -0.005863082425014098 0.014790943842508366 -0.02171967958804534 0.025204367702599376 0.027536202032731168 -0.02708680944979354 -0.01711458094865337 0.03370375006819829 -36.70317888011586 -0.0013263183793107178 -0.03746147194099857 -0.029537138738063642 0.01460429980758024 -0.027319315515719738 0.014480161712384133 -0.035398723295275124 -0.01979388556579512 -19.729118978172345 0.022855109676540614 0.0266958436294961 -0.02116518774036702 0.0027300459768544285 -0.004397751921678785 0.03991659336180104 -0.001322590519923561 0.018309744191253627 24.049353587439917 -0.02052870387171379 0.0042495234585149 28.86460113405061 0.005215452221578647 0.028683812801744858 28.873924103390248 -0.030564276907652833 0.02840196214610888 4.4496526835087025 1.1742131679861325 13.038315490833241 -68.53698695908241 30.326217447375107 -7.2265151974566795 3.8692846986316143 -5.6726931659845095 -51.443196703094586 -17.93796087364113 -5.192953987466999 6.188787698761492 -0.46748057294107953 0.07116300646056192 -8.092981137225953 -0.04369655771362618 0.0014280237907876609 44.55855882342313 -0.017828950461188466 0.005482549576074219 44.54788213128412 12.477288194864428 -0.021325188890338766 -0.005493126988877952 0.01411832929527898 -0.013166580845818902 -0.015012386039980804 0.047299448473226334 0.008719052946769086 0.02469846230375902 11.11613107026721 -0.007940865867016015 -0.033596241097829445 0.03952347143586881 0.02987756543128167 -0.02339052924783333 -0.031977790867764935 0.016643018829439825 0.004737845058994824 4.748232230682184 -0.007467075689541789 0.03879718570257182 0.040669478049170635 -0.017770730498868247 0.02203422947391789 0.005607423365945654 0.04386887644986118 -0.001199845892446748 -5.560936030895678 -0.01252854280168861 -0.014525558922594852 -6.698776706654912 0.015609881833055684 -0.011461048668559484 -6.767379411181383 -0.03345001102589177 0.04141821466357228 -0.04668838258399616 0.01909568770336226 -0.01474321395494769 8.03984190879913 3.534704260541066 -19.220889200691104 0.03284266260714312 10.43210051748641 0.03996919930481525 -5.63616202466806 -15.631026258650724 3.217674868395018 -0.04067830322915656 -0.027257820371619935 0.04260902877785523 0.008472543507089682 4.682824402888851 -0.015696491281713337 12.447035976712113 -8.245182502439613 6.865574524135658 -0.01184420726104504 46.41302543847458 -0.017001910044728133 -4.366234596706775 -14.762716201095207 -3.7925015326695575 -0.04278147283711391 0.04154360393954941 0.012034729171200747 0.03448601977044798 -10.708450664554679 -0.045986363851327816 
-0.00557461907354918 -0.019260205857527177 -0.01096693609663177 -0.03964707471669705 0.0387811592742416 0.04859484740123538 -1.8832436903023804 1.6369077073647826 -0.9616944252435923 -1.0543679025384103 3.9620991555463623 0.41038871619410433 -1.1391887471841013 -1.3991353943914493 -1.0482028356124413 0.7598484800298296 0.5498267620082613 -0.8081126674882917 0.2559135860820524 11.964303339613972 -1.5514565436831707 -0.04315965414254073 -0.9660506833072545 -5.333025139595424 0.5600571636991576 -16.61843244497844 -0.4545903905958158 -3.763039684113548 1.319295168100544 -15.17830436534386 71.18990865100179 26.357866469019083 1.8588230992377341 -1.0084335806774405 4.0686440370009525 39.50784566037008 22.013451201836865 -0.12299275592099251 -4.944727099694529 4.571377220868939 -0.14413638495989486 -1.5631150562305047 -0.01754274576883254 0.032985832886290825 -56.18961909079409 0.009731976424334534 -0.0348718722712949 -56.20026104638739 -38.74884782020723 -0.03273279788115261 0.03611203581239505 0.018187658032765147 -0.03500087444528596 -0.005165305737909084 0.020820127835568587 0.001594227792715158 0.02215838684619001 -36.720095505538005 0.009399985229339033 -0.026373903564650674 0.020988667747122058 -0.03749264000255741 -0.017207069559312328 -0.030681808337665824 -0.03244196804333916 -0.03702097566679855 -19.80245563029869 -0.04420081184502236 0.04837688960361374 0.04870632698017381 0.019570414288358536 -0.045953955551053714 0.030947409478833964 -0.04764788092697193 -0.032117817246406465 24.071848997806807 -0.0371538660070402 0.04595005996328161 28.860171757845723 0.04961963914464108 0.0380270410137798 28.85144323392316 -0.014660319191299885 -0.023758598360000955 4.10480075269391 1.092396020929136 13.182732104279808 -69.27407326875375 30.01358639511195 -5.771279398882024 3.918392257713918 -5.519245968882102 -48.29592479280103 -17.52489638377372 -3.913162085987921 5.229946673256921 -0.4809965861487834 0.062067031934341696 -8.088969482797044 -0.00021462087946069034 0.010706652598887041 44.566612466710815 0.032091690570690966 -0.043743568175369375 44.5312510450362 12.425895956932266 -0.012112539730510938 0.02232704267625452 -0.016065965478425353 0.03720251971182474 -0.03133159426788892 -0.04441866059437932 0.03311845379935879 -0.024827914250651877 11.086590672597714 0.006244778903397547 -0.027144746591137425 0.041567526326361445 -0.02133463743516437 -0.037792896905545055 -0.0159352124232579 -0.04595107016570318 0.010889698538556718 4.7346113996001 -0.02348602433739463 -0.004329678768964971 -0.046738605498457986 -0.004550666835278633 0.02247594228436537 0.020483717692247876 -0.042417659060551435 0.049122615117881824 -5.606830010438504 0.023684187508031425 -0.024900152664457657 -6.696254394720981 0.02875395402564578 -0.01425625617960974 -6.760965170189911 -0.036776407388757856 -0.00782819940980744 -0.0034337737317265264 0.024826585928836166 -0.018758441110922414 8.061978385795308 3.4747720520629835 -19.179692750991187 -0.02198256964797195 10.428995530805038 0.02897662931262768 -5.642134789066921 -15.609927960927033 3.2105139398698412 -0.0318214946566197 0.047185247918646415 -0.012352679799693204 0.024481424078925305 4.6646135900907835 -0.03327624207279452 12.471378754275866 -8.212650055872237 6.846213872658443 -0.020509507467557093 46.40061741346895 0.031066094770948086 -4.293152240962755 -14.758554290359694 -3.828920470337748 -0.003974960094574407 0.028486467777317632 0.02243296974651581 0.024663406018704228 -10.76377836932104 -0.03929864545616249 
